<svg xmlns="http://www.w3.org/2000/svg" xmlns:xlink="http://www.w3.org/1999/xlink" width="1920" height="1080" viewBox="0 0 1920 1080"><defs><clipPath id="b"><rect width="1920" height="1080"/></clipPath></defs><g id="a" clip-path="url(#b)"><rect width="1920" height="1080" fill="#c7e5ff"/><g transform="translate(1 228)" opacity="0.51"><g transform="translate(312 392)" fill="#79b984" stroke="#e669ef" stroke-width="1"><rect width="252" height="252" stroke="none"/><rect x="0.5" y="0.5" width="251" height="251" fill="none"/></g><g transform="translate(404 445)" fill="#c96969" stroke="#ff6565" stroke-width="1"><circle cx="127" cy="127" r="127" stroke="none"/><circle cx="127" cy="127" r="126.5" fill="none"/></g><g transform="translate(199 285)" fill="#3b98c8"><path d="M 284.13427734375 246.5 L 0.8657165169715881 246.5 L 142.4998168945313 1.000576138496399 L 284.13427734375 246.5 Z" stroke="none"/><path d="M 142.4998168945313 2.001083374023438 L 1.73138427734375 246 L 283.2686157226563 246 L 142.4998168945313 2.001083374023438 M 142.4998168945313 0 L 285 247 L 0 247 L 142.4998168945313 0 Z" stroke="none" fill="#017409"/></g></g><g transform="translate(1121 245)" opacity="0.51"><g transform="translate(312 392)" fill="#79b984" stroke="#e669ef" stroke-width="1"><rect width="252" height="252" stroke="none"/><rect x="0.5" y="0.5" width="251" height="251" fill="none"/></g><g transform="translate(404 445)" fill="#c96969" stroke="#ff6565" stroke-width="1"><circle cx="127" cy="127" r="127" stroke="none"/><circle cx="127" cy="127" r="126.5" fill="none"/></g><g transform="translate(199 285)" fill="#3b98c8"><path d="M 284.13427734375 246.5 L 0.8657170534133911 246.5 L 142.5 1.000576138496399 L 284.13427734375 246.5 Z" stroke="none"/><path d="M 142.5 2.001083374023438 L 1.73138427734375 246 L 283.2686157226563 246 L 142.5 2.001083374023438 M 142.5 0 L 285 247 L 0 247 L 142.5 0 Z" stroke="none" fill="#017409"/></g></g><g transform="translate(532 -204)" opacity="0.51"><g transform="translate(312 392)" fill="#79b984" stroke="#e669ef" stroke-width="1"><rect width="252" height="252" stroke="none"/><rect x="0.5" y="0.5" width="251" height="251" fill="none"/></g><g transform="translate(404 445)" fill="#c96969" stroke="#ff6565" stroke-width="1"><circle cx="127" cy="127" r="127" stroke="none"/><circle cx="127" cy="127" r="126.5" fill="none"/></g><g transform="translate(199 285)" fill="#3b98c8"><path d="M 284.13427734375 246.5 L 0.8657170534133911 246.5 L 142.5 1.000576138496399 L 284.13427734375 246.5 Z" stroke="none"/><path d="M 142.5 2.001083374023438 L 1.73138427734375 246 L 283.2686157226563 246 L 142.5 2.001083374023438 M 142.5 0 L 285 247 L 0 247 L 142.5 0 Z" stroke="none" fill="#017409"/></g></g></g></svg>